<?xml version="1.0" standalone="no"?>
<!DOCTYPE svg PUBLIC "-//W3C//DTD SVG 20010904//EN"
 "http://www.w3.org/TR/2001/REC-SVG-20010904/DTD/svg10.dtd">
<svg version="1.0" xmlns="http://www.w3.org/2000/svg"
 width="219.000000pt" height="219.000000pt" viewBox="0 0 219.000000 219.000000"
 preserveAspectRatio="xMidYMid meet">
<metadata>
Created by potrace 1.14, written by Peter Selinger 2001-2017
</metadata>
<g transform="translate(0.000000,219.000000) scale(0.100000,-0.100000)"
fill="#000000" stroke="none">
<path d="M657 2091 c-31 -33 -58 -69 -58 -80 -1 -12 -2 -27 -3 -33 -4 -27 17
-69 46 -93 97 -82 240 41 178 154 -5 9 -31 38 -57 64 l-49 48 -57 -60z"/>
<path d="M1421 2099 c-55 -54 -71 -83 -71 -127 2 -114 172 -154 225 -52 32 63
17 109 -61 189 l-41 41 -52 -51z"/>
<path d="M963 1904 c-159 -159 -178 -193 -178 -314 1 -72 5 -93 27 -136 41
-78 138 -156 208 -165 25 -4 25 -4 26 79 1 79 0 84 -22 95 -34 15 -64 67 -66
114 -4 118 148 177 229 89 18 -20 33 -44 34 -53 0 -10 2 -25 4 -34 5 -28 -32
-96 -62 -114 -28 -16 -28 -19 -27 -93 1 -42 2 -80 3 -84 2 -13 77 14 124 45
99 66 157 201 133 315 -17 85 -51 133 -185 266 l-120 119 -128 -129z"/>
<path d="M321 1836 c-4 -6 -7 -58 -6 -116 3 -125 22 -175 85 -216 158 -105
349 59 271 232 -20 43 -68 86 -111 99 -40 13 -229 13 -239 1z"/>
<path d="M1628 1833 c-77 -22 -129 -92 -130 -172 0 -64 31 -124 84 -158 34
-23 53 -28 103 -28 71 0 115 24 156 83 22 32 24 48 27 162 l4 126 -102 -1
c-56 0 -119 -5 -142 -12z"/>
<path d="M128 1552 c-10 -4 -42 -31 -73 -60 l-56 -54 48 -47 c57 -57 81 -71
123 -71 92 0 148 96 105 179 -23 46 -98 72 -147 53z"/>
<path d="M1952 1540 c-103 -63 -57 -220 64 -220 40 0 50 5 108 59 l64 59 -52
50 c-80 78 -122 90 -184 52z"/>
<path d="M470 1388 c-45 -17 -79 -45 -193 -157 l-138 -136 134 -131 c114 -112
143 -135 193 -154 169 -63 342 14 405 181 11 28 18 53 15 56 -2 2 -39 5 -81 5
-62 1 -80 -3 -87 -16 -30 -54 -106 -85 -162 -66 -62 20 -101 82 -92 143 8 47
25 73 63 98 54 36 146 16 178 -39 18 -29 20 -30 101 -30 l82 -1 -4 27 c-14 80
-89 173 -171 212 -68 32 -170 35 -243 8z"/>
<path d="M1508 1395 c-86 -31 -156 -99 -193 -187 -26 -63 -24 -65 61 -67 l75
-1 42 43 c38 39 48 43 94 46 42 2 56 -2 83 -26 63 -52 72 -127 24 -190 -50
-67 -170 -62 -211 8 -10 16 -26 29 -38 30 -66 3 -136 1 -141 -4 -12 -12 28
-106 63 -146 48 -56 100 -88 170 -104 90 -21 180 -3 251 50 43 32 252 241 252
251 0 5 -58 66 -129 136 -88 86 -145 133 -178 148 -58 26 -170 32 -225 13z"/>
<path d="M971 889 c-71 -32 -127 -84 -158 -147 -24 -49 -28 -68 -28 -142 1
-69 5 -94 24 -130 21 -41 265 -300 282 -300 19 0 251 245 273 288 80 158 23
344 -129 421 -49 24 -95 36 -96 25 0 -5 -1 -40 -2 -78 -2 -68 -1 -71 35 -104
61 -57 70 -126 24 -187 -58 -76 -180 -66 -219 18 -32 67 -22 122 31 168 36 32
37 34 39 111 1 89 -2 91 -76 57z"/>
<path d="M125 866 c-16 -8 -52 -36 -78 -63 l-48 -50 60 -55 c65 -61 105 -74
157 -53 99 41 98 179 -2 221 -41 17 -51 17 -89 0z"/>
<path d="M1965 864 c-52 -26 -72 -68 -67 -141 3 -29 55 -77 94 -85 19 -4 45
-1 64 7 35 14 124 93 124 109 0 10 -64 76 -101 104 -26 20 -82 23 -114 6z"/>
<path d="M490 722 c-83 -11 -143 -60 -164 -133 -7 -24 -12 -87 -12 -139 l1
-95 100 -3 c55 -2 119 2 142 9 48 13 100 59 119 106 28 67 7 160 -48 211 -29
27 -101 50 -138 44z"/>
<path d="M1631 714 c-80 -23 -132 -92 -133 -173 0 -64 31 -124 84 -158 39 -26
50 -28 165 -31 l123 -4 0 114 c0 130 -16 179 -71 221 -55 40 -106 50 -168 31z"/>
<path d="M668 326 c-57 -24 -87 -96 -63 -152 12 -29 98 -124 112 -124 11 0
113 110 114 123 0 6 2 21 4 32 17 82 -85 156 -167 121z"/>
<path d="M1425 326 c-43 -19 -66 -49 -72 -94 -7 -49 11 -83 71 -142 l46 -44
57 56 c50 50 56 61 61 106 4 46 2 53 -29 85 -39 42 -88 54 -134 33z"/>
</g>
</svg>
